# xmcd
#
# Track frame offsets:
#	150
#	22880
#	36607
#	51685
#	76147
#	92045
#	114467
#	135712
#	152625
#	174562
#	199837
#	216132
#	237812
#	254960
#	279385
#	299782
#	315005
#	337170
#
# Disc length: 4767 seconds
#
# Revision: 1
# Processed by: cddbd v1.4PL0 Copyright (c) Steve Scherf et al.
# Submitted via: EasyCDDAExtractor 5.1.0
#
DISCID=12129d12
DTITLE=K.D. Lang - Live in Canada
DYEAR=1993
DGENRE=Soulrock
TTITLE0=Save Me
TTITLE1=Don't Let The Stars Get In Your Eyes
TTITLE2=Ridin' The Rails
TTITLE3=Big Boned Gal
TTITLE4=Big Big Love
TTITLE5=Miss Chatelaine
TTITLE6=Luck In My Eyes
TTITLE7=The Mind Of Love
TTITLE8=Constant Craving
TTITLE9=Outside Myself
TTITLE10=Still Thrives This Love
TTITLE11=Constant Craving
TTITLE12=Trail Of Broken Hearts
TTITLE13=Pullin' Back The Reins
TTITLE14=Wash Me Clean
TTITLE15=Big Bog Love
TTITLE16=Miss Chatelaine
TTITLE17=Crying
EXTD=
EXTT0=
EXTT1=
EXTT2=
EXTT3=
EXTT4=
EXTT5=
EXTT6=
EXTT7=
EXTT8=
EXTT9=
EXTT10=
EXTT11=
EXTT12=
EXTT13=
EXTT14=
EXTT15=
EXTT16=
EXTT17=
PLAYORDER=
